/* XPM */
static char *barrel[] = {
/* columns rows colors chars-per-pixel */
"64 64 12 1 ",
"  c #000000",
". c #3E3015",
"X c #363636",
"o c #231C0A",
"O c #53391C",
"+ c #724928",
"@ c #4F4F4F",
"# c #6A6A6A",
"$ c #8C5734",
"% c #9D623B",
"& c #A4693F",
"* c gray52",
/* pixels */
"                                                                ",
"                                                                ",
"                                                                ",
"                                                                ",
"                                                                ",
"                                                                ",
"                                                                ",
"                                                                ",
"                                                                ",
"                                                                ",
"                                                                ",
"                                                                ",
"                                                                ",
"                                                                ",
"                                                                ",
"                                                                ",
"                                                                ",
"                                                                ",
"                                                                ",
"                                                                ",
"                                                                ",
"                                                                ",
"                                                                ",
"                                                                ",
"                                                                ",
"                                                                ",
"                                                                ",
"                                                                ",
"                                                                ",
"                                                                ",
"                                                                ",
"                       ###############*#*#                      ",
"                     ##@@@@@@X@@@@@@#@@##@*#                    ",
"                    #*XX oooXXoXoXoXXXX@X@#@#                   ",
"                    ###***##########@@@@X@XXX                   ",
"                   $$##**####@@@@@@X@@X@XXXX..                  ",
"                   +$$$$@++++O++OOOOXOO.....O.                  ",
"                  $+$$%%$%%%$$$$$$$OO++OOOOO.O.                 ",
"                  +%+%&$$%%%++$$$$++O++++O++.O.                 ",
"                  +$+%&$&%%%$+%$$$++O+++OOOO.OX                 ",
"                 @@###%$&%%$$$$$$$++O++++OX@XXX                 ",
"                 @###*#**########@@@@@@@@XXXXoX.                ",
"                 @#####*#@#@@#@@@X@@@@XXX@XXXXX.                ",
"                 ++@@####@##@@@#@@@@@@XXXXXXXXO.                ",
"                 +%+%$$O$$++.+O+OOOOoOO.O..OO.Oo                ",
"                 +$+%&&$&%%%+$$$$$++O+O++O.OO.O.                ",
"                 +$+%&&$&%%%$$$+$$++O+++++OOO.O.                ",
"                 +$+%&&$&%%&+$$$$+++O+++OOOOO.O.                ",
"                 +%+&&&$&%%%+%$$$$++O++O++OOO.O.                ",
"                 +$+%&&$&%%%+%$$$+++O+++OO.OO.O.                ",
"                 +%+%&&$&%%%+$$$$+++O++++O.OO...                ",
"                 #$+%&&$&%%%+$$$$+++.++++O.OO.@X                ",
"                 ##*##&$&%%%+$$+$$++O+++OOOXXXXX                ",
"                 @###**##########@@@@@@@@@@XXXX                 ",
"                 @@###*#####@#@#@X@@@@X@@XXXXXX.                ",
"                  O@@#@##@#@@@@@@@@@@@XXX@X....O                ",
"                  +++++++++Oo+OOOOOOoOOOO.oO.O.O                ",
"                  +$+%&$%$$$+$+$++++O++O+.OO.O.                 ",
"                   +$$&+$%$$O+$+$$+OO+++O.OO.O.                 ",
"                   #$+$$+$$$+++$+++OO++OO.O.O.                  ",
"                   #**#$$$$$+++++++OO+OO.X...X                  ",
"                    ###**######@#@@@@@@XXXXoo                   ",
"                     #######@#@@@XX@X@XXXXoX                    ",
"                       X@@X@XX@@XXXXXoXooX                      "
};
